<?xml version="1.0" encoding="utf-8"?>
<!-- Generator: Adobe Illustrator 22.1.0, SVG Export Plug-In . SVG Version: 6.00 Build 0)  -->
<svg version="1.1" id="图层_1" xmlns="http://www.w3.org/2000/svg" xmlns:xlink="http://www.w3.org/1999/xlink" x="0px" y="0px"
	 viewBox="0 0 61.2 61.2" style="enable-background:new 0 0 61.2 61.2;" xml:space="preserve">
<style type="text/css">
	.st0{fill:#1BC09C;}
	.st1{fill:#2AA5EA;}
</style>
<g>
	<path class="st0" d="M21.3,17.5L36.8,1.9c2.6-2.6,6.7-2.6,9.3,0s2.6,6.7,0,9.3L35.3,22.1c-2.6,2.6-6.7,2.6-9.3,0L21.3,17.5z"/>
	<path class="st0" d="M39.9,17.5L24.4,1.9c-2.6-2.6-6.7-2.6-9.3,0s-2.6,6.7,0,9.3l10.9,10.9c2.6,2.6,6.7,2.6,9.3,0L39.9,17.5z"/>
	<path class="st0" d="M43.8,39.9l15.5-15.5c2.6-2.6,2.6-6.7,0-9.3s-6.7-2.6-9.3,0L39.1,25.9c-2.6,2.6-2.6,6.7,0,9.3L43.8,39.9z"/>
	<path class="st0" d="M43.8,21.3l15.5,15.5c2.6,2.6,2.6,6.7,0,9.3s-6.7,2.6-9.3,0L39.1,35.3c-2.6-2.6-2.6-6.7,0-9.3L43.8,21.3z"/>
	<path class="st0" d="M17.5,21.3L1.9,36.8c-2.6,2.6-2.6,6.7,0,9.3s6.7,2.6,9.3,0l10.9-10.9c2.6-2.6,2.6-6.7,0-9.3L17.5,21.3z"/>
	<path class="st0" d="M17.5,39.9L1.9,24.4c-2.6-2.6-2.6-6.7,0-9.3s6.7-2.6,9.3,0l10.9,10.9c2.6,2.6,2.6,6.7,0,9.3L17.5,39.9z"/>
	<path class="st0" d="M39.9,43.8L24.4,59.3c-2.6,2.6-6.7,2.6-9.3,0s-2.6-6.7,0-9.3l10.9-10.9c2.6-2.6,6.7-2.6,9.3,0L39.9,43.8z"/>
	<path class="st0" d="M21.3,43.8l15.5,15.5c2.6,2.6,6.7,2.6,9.3,0s2.6-6.7,0-9.3L35.3,39.1c-2.6-2.6-6.7-2.6-9.3,0L21.3,43.8z"/>
</g>
<g>
	<path class="st1" d="M21.3,17.5l4.7,4.7c2.6,2.6,6.7,2.6,9.3,0l4.7-4.7l-9.3-9.3L21.3,17.5z"/>
	<path class="st1" d="M43.8,21.3l-4.7,4.7c-2.6,2.6-2.6,6.7,0,9.3l4.7,4.7l9.3-9.3L43.8,21.3z"/>
	<path class="st1" d="M22.1,25.9l-4.7-4.7l-9.3,9.3l9.3,9.3l4.7-4.7C24.7,32.7,24.7,28.5,22.1,25.9z"/>
	<path class="st1" d="M39.9,43.8l-4.7-4.7c-2.6-2.6-6.7-2.6-9.3,0l-4.7,4.7l9.3,9.3L39.9,43.8z"/>
</g>
</svg>
